<svg xmlns="http://www.w3.org/2000/svg" viewBox="0 0 24 24"><g data-name="&lt;Group&gt;" fill="none" stroke-width="1.5" stroke="#000" stroke-linecap="round" stroke-linejoin="round"><path d="M11.45 12.78A4.18 4.18 0 0 1 12 15a4.6 4.6 0 0 1-.62 2.39 4.07 4.07 0 0 1-1 1.18 3.72 3.72 0 0 1-1.58.75 9.18 9.18 0 0 1-2 .2H.5V4.5h6.78a4.19 4.19 0 0 1 3.63 1.6 4 4 0 0 1 .64 2.29 3.5 3.5 0 0 1-.65 2.21 3.34 3.34 0 0 1-1.07.85 3.15 3.15 0 0 1 1.62 1.33Z" data-name="&lt;Path&gt;"/><path d="M3.5 10.5h3a2.86 2.86 0 0 0 1.48-.34A1.27 1.27 0 0 0 8.5 9a1.21 1.21 0 0 0-.75-1.25A5.41 5.41 0 0 0 6.1 7.5H3.5Zm5 4.13a1.41 1.41 0 0 0-.84-1.41A3.33 3.33 0 0 0 6.34 13H3.5v3.5h2.79a3.12 3.12 0 0 0 1.34-.23 1.65 1.65 0 0 0 .87-1.64Z" data-name="&lt;Path&gt;"/><path d="M23.48 14.5V14a5.27 5.27 0 0 0-5-5.5 5.27 5.27 0 0 0-5 5.5 5.27 5.27 0 0 0 5 5.5 5 5 0 0 0 4.45-3h-2.69a2.2 2.2 0 0 1-1.74 1c-1.26 0-2.29-1.31-2.46-3Zm-5-4a2.6 2.6 0 0 1 2.25 2h-4.5a2.6 2.6 0 0 1 2.27-2Z" data-name="&lt;Compound Path&gt;"/><path d="M15.5 4.5h6v2h-6z" data-name="&lt;Rectangle&gt;"/></g></svg>